<svg width="20" height="20" viewBox="0 0 26 26" fill="none" xmlns="http://www.w3.org/2000/svg">
<path d="M13 1C15.8403 1 18.1429 3.14903 18.1429 5.8V7.4C18.1429 10.051 15.8403 12.2 13 12.2C10.1597 12.2 7.85714 10.051 7.85714 7.4V5.8C7.85714 3.14903 10.1597 1 13 1ZM25 23.4C25 23.0116 25 22.6233 25 22.2349C25 17.1367 18.6806 13.8 13 13.8C7.31936 13.8 1 17.1367 1 22.2349V23.4C1 24.2837 1.76751 25 2.71429 25H23.2857C24.2325 25 25 24.2837 25 23.4Z" stroke="#182C3E" stroke-width="1.5" stroke-linecap="round" stroke-linejoin="round"/>
</svg>
