<svg width="73" height="30" viewBox="0 0 73 30" fill="none" xmlns="http://www.w3.org/2000/svg">
<circle cx="15" cy="15" r="15" fill="#182C3E"/>
<path d="M1.93005 13.9285H17.2515L14.5729 24.5357V16.2857L1.93005 13.9285Z" fill="white" fill-opacity="0.64"/>
<path d="M40.415 7.695C41.625 7.695 42.555 7.95 43.205 8.46C43.855 8.96 44.18 9.56 44.18 10.26C44.18 10.96 43.945 11.625 43.475 12.255C43.005 12.875 42.34 13.395 41.48 13.815C43.42 14.115 44.39 15.06 44.39 16.65C44.39 17.42 44.14 18.19 43.64 18.96C42.69 20.43 41.225 21.165 39.245 21.165C38.255 21.165 37.545 21.015 37.115 20.715C36.685 20.415 36.47 19.96 36.47 19.35C36.47 18.74 36.66 17.175 37.04 14.655C37.42 12.125 37.61 10.51 37.61 9.81C37.61 9.1 37.535 8.51 37.385 8.04C38.615 7.81 39.625 7.695 40.415 7.695ZM38.51 14.595C38.24 16.375 38.105 17.605 38.105 18.285C38.105 18.955 38.145 19.44 38.225 19.74C38.605 19.99 39.08 20.115 39.65 20.115C40.6 20.115 41.36 19.8 41.93 19.17C42.5 18.54 42.785 17.84 42.785 17.07C42.785 16.3 42.54 15.67 42.05 15.18C41.57 14.68 40.82 14.415 39.8 14.385C39.36 14.485 38.93 14.555 38.51 14.595ZM38.63 13.77C39.94 13.69 40.93 13.365 41.6 12.795C42.27 12.225 42.605 11.595 42.605 10.905C42.605 10.205 42.41 9.64 42.02 9.21C41.64 8.78 41.05 8.565 40.25 8.565C40.01 8.565 39.695 8.6 39.305 8.67C39.295 9.25 39.07 10.95 38.63 13.77ZM54.3063 10.74C54.3063 11.38 54.1663 11.98 53.8863 12.54C53.6063 13.09 53.2563 13.56 52.8363 13.95C52.4163 14.33 51.9213 14.68 51.3513 15C50.3813 15.53 49.3363 15.935 48.2163 16.215C48.1063 17.115 48.0513 17.88 48.0513 18.51C48.0513 19.47 48.2413 20.155 48.6213 20.565C48.3113 20.925 47.9663 21.105 47.5863 21.105C46.8063 21.105 46.4163 20.445 46.4163 19.125C46.4163 18.575 46.6063 17.06 46.9863 14.58C47.3663 12.1 47.5563 10.51 47.5563 9.81C47.5563 9.1 47.4813 8.51 47.3313 8.04C48.6813 7.79 49.7713 7.665 50.6013 7.665C53.0713 7.665 54.3063 8.69 54.3063 10.74ZM52.7313 11.055C52.7313 9.405 51.9113 8.58 50.2713 8.58C49.9513 8.58 49.6113 8.61 49.2513 8.67C49.2513 9.29 49.1163 10.42 48.8463 12.06C48.5863 13.69 48.4213 14.735 48.3513 15.195C49.5113 14.955 50.5113 14.52 51.3513 13.89C51.7813 13.56 52.1163 13.155 52.3563 12.675C52.6063 12.185 52.7313 11.645 52.7313 11.055ZM57.8192 21.165C56.8292 21.165 56.1192 21.015 55.6892 20.715C55.2592 20.415 55.0442 19.935 55.0442 19.275C55.0442 18.605 55.2342 17.08 55.6142 14.7C55.9942 12.32 56.1842 10.755 56.1842 10.005C56.1842 9.245 56.1092 8.64 55.9592 8.19C57.1492 7.93 58.2192 7.8 59.1692 7.8C60.7192 7.8 61.8992 8.17 62.7092 8.91C63.5292 9.64 63.9392 10.825 63.9392 12.465C63.9392 14.105 63.6942 15.57 63.2042 16.86C62.7142 18.15 61.9942 19.19 61.0442 19.98C60.1042 20.77 59.0292 21.165 57.8192 21.165ZM56.6792 18.6C56.6792 19.05 56.7192 19.425 56.7992 19.725C57.2192 19.985 57.7442 20.115 58.3742 20.115C59.0142 20.115 59.6142 19.895 60.1742 19.455C60.7342 19.005 61.1642 18.43 61.4642 17.73C62.0642 16.33 62.3642 14.815 62.3642 13.185C62.3642 11.555 62.1192 10.405 61.6292 9.735C61.1392 9.055 60.2742 8.715 59.0342 8.715C58.6542 8.715 58.2742 8.75 57.8942 8.82C57.8942 9.33 57.6892 10.83 57.2792 13.32C56.8792 15.8 56.6792 17.56 56.6792 18.6ZM71.8813 10.575C71.6813 10.075 71.3463 9.65 70.8763 9.3C70.4063 8.95 69.8813 8.775 69.3013 8.775C68.7313 8.775 68.2613 8.95 67.8913 9.3C67.5213 9.64 67.3363 10.12 67.3363 10.74C67.3363 11.02 67.3563 11.25 67.3963 11.43C67.4463 11.61 67.5663 11.81 67.7563 12.03C67.9563 12.24 68.1463 12.42 68.3263 12.57C68.5163 12.72 68.8613 12.995 69.3613 13.395C69.8613 13.795 70.3713 14.22 70.8913 14.67C71.4213 15.11 71.8263 15.565 72.1062 16.035C72.3863 16.505 72.5263 17.105 72.5263 17.835C72.5263 18.795 72.1413 19.605 71.3713 20.265C70.6113 20.925 69.6413 21.255 68.4613 21.255C67.5413 21.255 66.7363 21.075 66.0463 20.715C65.3563 20.345 65.0113 19.825 65.0113 19.155C65.0113 18.865 65.0763 18.605 65.2063 18.375C65.3363 18.145 65.5263 17.885 65.7763 17.595C66.2163 19.375 67.2413 20.265 68.8513 20.265C69.4313 20.265 69.9413 20.1 70.3813 19.77C70.8213 19.44 71.0413 18.95 71.0413 18.3C71.0413 17.93 70.9963 17.65 70.9063 17.46C70.8163 17.26 70.7413 17.105 70.6813 16.995C70.6313 16.885 70.5363 16.755 70.3963 16.605C70.2563 16.445 70.1413 16.32 70.0513 16.23C69.9613 16.13 69.8063 15.99 69.5863 15.81C69.3663 15.62 69.1913 15.475 69.0613 15.375C68.9413 15.265 68.7313 15.095 68.4313 14.865C68.1313 14.625 67.8963 14.435 67.7263 14.295C67.1463 13.825 66.7013 13.355 66.3913 12.885C66.0913 12.415 65.9413 11.85 65.9413 11.19C65.9413 10.08 66.3163 9.215 67.0663 8.595C67.8163 7.975 68.7963 7.665 70.0063 7.665C70.7263 7.665 71.3313 7.805 71.8213 8.085C72.3113 8.365 72.5563 8.75 72.5563 9.24C72.5563 9.73 72.3313 10.175 71.8813 10.575Z" fill="#182C3E"/>
</svg>
