<svg width="24" height="24" viewBox="0 0 26 26" fill="none" xmlns="http://www.w3.org/2000/svg">
<path d="M19.088 7.72939V9.57558C19.088 11.6148 15.2445 12.0767 13.0047 12.0767C10.7648 12.0767 6.92133 11.3466 6.92133 9.30738V7.46119M4.74299 1.00422L21.1591 1C22.2155 0.999729 23.0952 1.73798 23.1808 2.69667L24.9932 23.0043C25.0839 24.0206 24.2526 24.9114 23.1363 24.9939C23.0817 24.998 23.0269 25 22.9721 25H3.02778C1.90787 25 1 24.1734 1 23.1538C1 23.1065 1.00199 23.0593 1.00598 23.0122L2.72176 2.70878C2.80303 1.74714 3.68364 1.00449 4.74299 1.00422Z" stroke="#182C3E" stroke-width="1.5" stroke-linecap="round" stroke-linejoin="round"/>
</svg>
