<svg width="110" height="50" viewBox="0 0 110 50" fill="none" xmlns="http://www.w3.org/2000/svg">
<ellipse cx="22.6027" cy="25" rx="22.6027" ry="25" fill="#182C3E"/>
<path d="M2.9082 23.2142H25.9953L21.9591 40.8927V27.1428L2.9082 23.2142Z" fill="white" fill-opacity="0.64"/>
<path d="M58.1547 10.3617C59.3647 10.3617 60.2947 10.6167 60.9447 11.1267C61.5947 11.6267 61.9197 12.2267 61.9197 12.9267C61.9197 13.6267 61.6847 14.2917 61.2147 14.9217C60.7447 15.5417 60.0797 16.0617 59.2197 16.4817C61.1597 16.7817 62.1297 17.7267 62.1297 19.3167C62.1297 20.0867 61.8797 20.8567 61.3797 21.6267C60.4297 23.0967 58.9647 23.8317 56.9847 23.8317C55.9947 23.8317 55.2847 23.6817 54.8547 23.3817C54.4247 23.0817 54.2097 22.6267 54.2097 22.0167C54.2097 21.4067 54.3997 19.8417 54.7797 17.3217C55.1597 14.7917 55.3497 13.1767 55.3497 12.4767C55.3497 11.7667 55.2747 11.1767 55.1247 10.7067C56.3547 10.4767 57.3647 10.3617 58.1547 10.3617ZM56.2497 17.2617C55.9797 19.0417 55.8447 20.2717 55.8447 20.9517C55.8447 21.6217 55.8847 22.1067 55.9647 22.4067C56.3447 22.6567 56.8197 22.7817 57.3897 22.7817C58.3397 22.7817 59.0997 22.4667 59.6697 21.8367C60.2397 21.2067 60.5247 20.5067 60.5247 19.7367C60.5247 18.9667 60.2797 18.3367 59.7897 17.8467C59.3097 17.3467 58.5597 17.0817 57.5397 17.0517C57.0997 17.1517 56.6697 17.2217 56.2497 17.2617ZM56.3697 16.4367C57.6797 16.3567 58.6697 16.0317 59.3397 15.4617C60.0097 14.8917 60.3447 14.2617 60.3447 13.5717C60.3447 12.8717 60.1497 12.3067 59.7597 11.8767C59.3797 11.4467 58.7897 11.2317 57.9897 11.2317C57.7497 11.2317 57.4347 11.2667 57.0447 11.3367C57.0347 11.9167 56.8097 13.6167 56.3697 16.4367ZM72.046 13.4067C72.046 14.0467 71.906 14.6467 71.626 15.2067C71.346 15.7567 70.996 16.2267 70.576 16.6167C70.156 16.9967 69.661 17.3467 69.091 17.6667C68.121 18.1967 67.076 18.6017 65.956 18.8817C65.846 19.7817 65.791 20.5467 65.791 21.1767C65.791 22.1367 65.981 22.8217 66.361 23.2317C66.051 23.5917 65.706 23.7717 65.326 23.7717C64.546 23.7717 64.156 23.1117 64.156 21.7917C64.156 21.2417 64.346 19.7267 64.726 17.2467C65.106 14.7667 65.296 13.1767 65.296 12.4767C65.296 11.7667 65.221 11.1767 65.071 10.7067C66.421 10.4567 67.511 10.3317 68.341 10.3317C70.811 10.3317 72.046 11.3567 72.046 13.4067ZM70.471 13.7217C70.471 12.0717 69.651 11.2467 68.011 11.2467C67.691 11.2467 67.351 11.2767 66.991 11.3367C66.991 11.9567 66.856 13.0867 66.586 14.7267C66.326 16.3567 66.161 17.4017 66.091 17.8617C67.251 17.6217 68.251 17.1867 69.091 16.5567C69.521 16.2267 69.856 15.8217 70.096 15.3417C70.346 14.8517 70.471 14.3117 70.471 13.7217ZM75.559 23.8317C74.569 23.8317 73.859 23.6817 73.429 23.3817C72.999 23.0817 72.784 22.6017 72.784 21.9417C72.784 21.2717 72.974 19.7467 73.354 17.3667C73.734 14.9867 73.924 13.4217 73.924 12.6717C73.924 11.9117 73.849 11.3067 73.699 10.8567C74.889 10.5967 75.959 10.4667 76.909 10.4667C78.459 10.4667 79.639 10.8367 80.449 11.5767C81.269 12.3067 81.679 13.4917 81.679 15.1317C81.679 16.7717 81.434 18.2367 80.944 19.5267C80.454 20.8167 79.734 21.8567 78.784 22.6467C77.844 23.4367 76.769 23.8317 75.559 23.8317ZM74.419 21.2667C74.419 21.7167 74.459 22.0917 74.539 22.3917C74.959 22.6517 75.484 22.7817 76.114 22.7817C76.754 22.7817 77.354 22.5617 77.914 22.1217C78.474 21.6717 78.904 21.0967 79.204 20.3967C79.804 18.9967 80.104 17.4817 80.104 15.8517C80.104 14.2217 79.859 13.0717 79.369 12.4017C78.879 11.7217 78.014 11.3817 76.774 11.3817C76.394 11.3817 76.014 11.4167 75.634 11.4867C75.634 11.9967 75.429 13.4967 75.019 15.9867C74.619 18.4667 74.419 20.2267 74.419 21.2667ZM89.621 13.2417C89.421 12.7417 89.086 12.3167 88.616 11.9667C88.146 11.6167 87.621 11.4417 87.041 11.4417C86.471 11.4417 86.001 11.6167 85.631 11.9667C85.261 12.3067 85.076 12.7867 85.076 13.4067C85.076 13.6867 85.096 13.9167 85.136 14.0967C85.186 14.2767 85.306 14.4767 85.496 14.6967C85.696 14.9067 85.886 15.0867 86.066 15.2367C86.256 15.3867 86.601 15.6617 87.101 16.0617C87.601 16.4617 88.111 16.8867 88.631 17.3367C89.161 17.7767 89.566 18.2317 89.846 18.7017C90.126 19.1717 90.266 19.7717 90.266 20.5017C90.266 21.4617 89.881 22.2717 89.111 22.9317C88.351 23.5917 87.381 23.9217 86.201 23.9217C85.281 23.9217 84.476 23.7417 83.786 23.3817C83.096 23.0117 82.751 22.4917 82.751 21.8217C82.751 21.5317 82.816 21.2717 82.946 21.0417C83.076 20.8117 83.266 20.5517 83.516 20.2617C83.956 22.0417 84.981 22.9317 86.591 22.9317C87.171 22.9317 87.681 22.7667 88.121 22.4367C88.561 22.1067 88.781 21.6167 88.781 20.9667C88.781 20.5967 88.736 20.3167 88.646 20.1267C88.556 19.9267 88.481 19.7717 88.421 19.6617C88.371 19.5517 88.276 19.4217 88.136 19.2717C87.996 19.1117 87.881 18.9867 87.791 18.8967C87.701 18.7967 87.546 18.6567 87.326 18.4767C87.106 18.2867 86.931 18.1417 86.801 18.0417C86.681 17.9317 86.471 17.7617 86.171 17.5317C85.871 17.2917 85.636 17.1017 85.466 16.9617C84.886 16.4917 84.441 16.0217 84.131 15.5517C83.831 15.0817 83.681 14.5167 83.681 13.8567C83.681 12.7467 84.056 11.8817 84.806 11.2617C85.556 10.6417 86.536 10.3317 87.746 10.3317C88.466 10.3317 89.071 10.4717 89.561 10.7517C90.051 11.0317 90.296 11.4167 90.296 11.9067C90.296 12.3967 90.071 12.8417 89.621 13.2417Z" fill="#182C3E"/>
</svg>
