<svg width="48" height="48" viewBox="0 0 48 48" fill="none" xmlns="http://www.w3.org/2000/svg">
<path d="M48 24C48 37.2581 37.2581 48 24 48C21.5226 48 19.1419 47.6226 16.8968 46.9258C17.8742 45.329 19.3355 42.7161 19.8774 40.6355C20.1677 39.5129 21.3677 34.9258 21.3677 34.9258C22.1516 36.4161 24.4355 37.6839 26.8645 37.6839C34.1032 37.6839 39.3194 31.0258 39.3194 22.7516C39.3194 14.8258 32.8452 8.89355 24.5226 8.89355C14.1677 8.89355 8.66129 15.8419 8.66129 23.4194C8.66129 26.9419 10.5387 31.3258 13.529 32.7194C13.9839 32.9323 14.2258 32.8355 14.3323 32.4C14.4097 32.071 14.8161 30.4355 15 29.6806C15.0581 29.4387 15.029 29.2258 14.8355 28.9935C13.8581 27.7839 13.0645 25.5774 13.0645 23.5161C13.0645 18.2226 17.071 13.1032 23.9032 13.1032C29.7968 13.1032 33.929 17.1194 33.929 22.8677C33.929 29.3613 30.6484 33.8613 26.3806 33.8613C24.029 33.8613 22.2581 31.9161 22.829 29.5258C23.5065 26.671 24.8129 23.5935 24.8129 21.5323C24.8129 19.6935 23.8258 18.1548 21.7742 18.1548C19.3645 18.1548 17.429 20.6419 17.429 23.9806C17.429 26.1097 18.1452 27.5419 18.1452 27.5419C18.1452 27.5419 15.7742 37.5871 15.3387 39.4645C14.8548 41.5355 15.0484 44.4581 15.2516 46.3548C6.32903 42.8613 0 34.171 0 24C0 10.7419 10.7419 0 24 0C37.2581 0 48 10.7419 48 24Z" fill="#DEDEDE"/>
</svg>
