<svg width="40" height="38" viewBox="0 0 40 38" fill="none" xmlns="http://www.w3.org/2000/svg">
<path d="M20.0045 9.25728C14.3291 9.25728 9.75125 13.6072 9.75125 19C9.75125 24.3928 14.3291 28.7427 20.0045 28.7427C25.6799 28.7427 30.2577 24.3928 30.2577 19C30.2577 13.6072 25.6799 9.25728 20.0045 9.25728ZM20.0045 25.334C16.3369 25.334 13.3385 22.4935 13.3385 19C13.3385 15.5065 16.3279 12.666 20.0045 12.666C23.681 12.666 26.6704 15.5065 26.6704 19C26.6704 22.4935 23.6721 25.334 20.0045 25.334ZM33.0686 8.85875C33.0686 10.1222 31.9978 11.1312 30.6771 11.1312C29.3475 11.1312 28.2856 10.1137 28.2856 8.85875C28.2856 7.60382 29.3564 6.5863 30.6771 6.5863C31.9978 6.5863 33.0686 7.60382 33.0686 8.85875ZM39.8595 11.1651C39.7078 8.12105 38.976 5.42463 36.6291 3.20306C34.2911 0.981479 31.4534 0.286177 28.2499 0.133549C24.9481 -0.0445163 15.0519 -0.0445163 11.7501 0.133549C8.55549 0.277697 5.71779 0.973 3.37089 3.19458C1.02398 5.41616 0.301171 8.11257 0.140547 11.1566C-0.0468489 14.294 -0.0468489 23.6975 0.140547 26.8349C0.292248 29.8789 1.02398 32.5754 3.37089 34.7969C5.71779 37.0185 8.54657 37.7138 11.7501 37.8665C15.0519 38.0445 24.9481 38.0445 28.2499 37.8665C31.4534 37.7223 34.2911 37.027 36.6291 34.7969C38.9671 32.5754 39.6988 29.8789 39.8595 26.8349C40.0468 23.6975 40.0468 14.3025 39.8595 11.1651ZM35.594 30.2012C34.8979 31.8631 33.5505 33.1435 31.7925 33.8133C29.1601 34.8054 22.9136 34.5765 20.0045 34.5765C17.0954 34.5765 10.8399 34.7969 8.2164 33.8133C6.46737 33.152 5.11991 31.8716 4.41495 30.2012C3.37089 27.6998 3.61182 21.7643 3.61182 19C3.61182 16.2357 3.37981 10.2918 4.41495 7.79884C5.11099 6.1369 6.45845 4.85652 8.2164 4.18666C10.8489 3.19458 17.0954 3.42352 20.0045 3.42352C22.9136 3.42352 29.169 3.20306 31.7925 4.18666C33.5416 4.84804 34.889 6.12842 35.594 7.79884C36.638 10.3002 36.3971 16.2357 36.3971 19C36.3971 21.7643 36.638 27.7082 35.594 30.2012Z" fill="#DEDEDE"/>
</svg>
