<svg width="48" height="38" viewBox="0 0 48 38" fill="none" xmlns="http://www.w3.org/2000/svg">
<path d="M43.0661 9.47028C43.0966 9.88588 43.0966 10.3016 43.0966 10.7172C43.0966 23.3937 33.1981 38 15.1067 38C9.53301 38 4.35536 36.4265 0 33.6954C0.791909 33.7844 1.55326 33.8141 2.37563 33.8141C6.97456 33.8141 11.2081 32.3 14.5889 29.7172C10.264 29.6281 6.63959 26.8672 5.39083 23.0672C6.00002 23.1562 6.60912 23.2156 7.24878 23.2156C8.132 23.2156 9.01532 23.0968 9.8376 22.8891C5.32999 21.9984 1.94916 18.139 1.94916 13.4781V13.3594C3.25876 14.0719 4.78174 14.5172 6.39584 14.5765C3.74608 12.8546 2.0101 9.91558 2.0101 6.59056C2.0101 4.80934 2.49732 3.17653 3.35017 1.75152C8.19285 7.57026 15.4721 11.3702 23.6345 11.7859C23.4822 11.0734 23.3908 10.3313 23.3908 9.58908C23.3908 4.30464 27.7766 0 33.2284 0C36.0609 0 38.6192 1.15781 40.4163 3.02812C42.6395 2.61252 44.7715 1.81092 46.6599 0.712505C45.9289 2.93912 44.3756 4.80943 42.335 5.99685C44.3148 5.78914 46.2336 5.25465 48 4.51253C46.6601 6.41245 44.9849 8.10458 43.0661 9.47028Z" fill="#DEDEDE"/>
</svg>
